<svg id="visual" viewBox="0 0 1400 600" width="1400" height="600" xmlns="http://www.w3.org/2000/svg" xmlns:xlink="http://www.w3.org/1999/xlink" version="1.1"><path d="M0 448L58.3 402.8C116.7 357.7 233.3 267.3 350 252.5C466.7 237.7 583.3 298.3 700 337.2C816.7 376 933.3 393 1050 376C1166.7 359 1283.3 308 1341.7 282.5L1400 257L1400 601L1341.7 601C1283.3 601 1166.7 601 1050 601C933.3 601 816.7 601 700 601C583.3 601 466.7 601 350 601C233.3 601 116.7 601 58.3 601L0 601Z" fill="#ffd600" stroke-linecap="round" stroke-linejoin="miter"></path></svg>