<?xml version="1.0" standalone="no"?>
<svg xmlns:xlink="http://www.w3.org/1999/xlink" id="wave" style="transform:rotate(0deg); transition: 0.3s" viewBox="0 0 1440 490" version="1.1" xmlns="http://www.w3.org/2000/svg"><defs><linearGradient id="sw-gradient-0" x1="0" x2="0" y1="1" y2="0"><stop stop-color="rgba(255, 214, 0, 1)" offset="0%"/><stop stop-color="rgba(255, 214, 0, 1)" offset="100%"/></linearGradient></defs><path style="transform:translate(0, 0px); opacity:1" fill="url(#sw-gradient-0)" d="M0,196L80,212.3C160,229,320,261,480,245C640,229,800,163,960,114.3C1120,65,1280,33,1440,81.7C1600,131,1760,261,1920,294C2080,327,2240,261,2400,245C2560,229,2720,261,2880,228.7C3040,196,3200,98,3360,89.8C3520,82,3680,163,3840,171.5C4000,180,4160,114,4320,98C4480,82,4640,114,4800,122.5C4960,131,5120,114,5280,122.5C5440,131,5600,163,5760,163.3C5920,163,6080,131,6240,155.2C6400,180,6560,261,6720,310.3C6880,359,7040,376,7200,326.7C7360,278,7520,163,7680,106.2C7840,49,8000,49,8160,98C8320,147,8480,245,8640,285.8C8800,327,8960,310,9120,326.7C9280,343,9440,392,9600,392C9760,392,9920,343,10080,294C10240,245,10400,196,10560,196C10720,196,10880,245,11040,236.8C11200,229,11360,163,11440,130.7L11520,98L11520,490L11440,490C11360,490,11200,490,11040,490C10880,490,10720,490,10560,490C10400,490,10240,490,10080,490C9920,490,9760,490,9600,490C9440,490,9280,490,9120,490C8960,490,8800,490,8640,490C8480,490,8320,490,8160,490C8000,490,7840,490,7680,490C7520,490,7360,490,7200,490C7040,490,6880,490,6720,490C6560,490,6400,490,6240,490C6080,490,5920,490,5760,490C5600,490,5440,490,5280,490C5120,490,4960,490,4800,490C4640,490,4480,490,4320,490C4160,490,4000,490,3840,490C3680,490,3520,490,3360,490C3200,490,3040,490,2880,490C2720,490,2560,490,2400,490C2240,490,2080,490,1920,490C1760,490,1600,490,1440,490C1280,490,1120,490,960,490C800,490,640,490,480,490C320,490,160,490,80,490L0,490Z"/></svg>